# xmcd CD database file
#
# Track frame offsets:
#	150
#	16962
#	35120
#	55237
#	71830
#	89722
#	108635
#	126490
#	144625
#	158477
#	176177
#	190432
#
# Disc length: 2729 seconds
#
# Revision: 9
# Processed by: cddbd v1.5.1PL0 Copyright (c) Steve Scherf et al.
# Submitted via: jetAudio 5
#
DISCID=ba0aa70c
DTITLE=Rebecca Lynn Howard - Forgive
DYEAR=2002
DGENRE=Country
TTITLE0=Beautiful To You
TTITLE1=Dancin' In God's Country
TTITLE2=It Didn't Look Like Alcohol
TTITLE3=Life Had Other Plans
TTITLE4=Forgive
TTITLE5=It's My Job To Fall
TTITLE6=Jesus And Bartenders
TTITLE7=This Love
TTITLE8=When Did You Ever Listen To Me
TTITLE9=Memorized
TTITLE10=Pink Flamingo Kind Of Love
TTITLE11=Softly And Tenderly
EXTD=(c)2002 MCA Nashville/ UMG Recordings USAupc 008817028828Producedb
EXTD=y Trey Bruce, (5) Produced by Trey Bruce and Mark Wright, (7) Prod
EXTD=uced by Steve Fishell
EXTT0=
EXTT1=
EXTT2=
EXTT3=
EXTT4=
EXTT5=
EXTT6=
EXTT7=
EXTT8=
EXTT9=
EXTT10=
EXTT11=
PLAYORDER=
